<svg width="0" height="0" class="hidden">
  <symbol version="1.0" xmlns="http://www.w3.org/2000/svg" viewBox="0 0 64 64" id="file">
      <path d="M24 40c-2.211 0-4 1.789-4 4s1.789 4 4 4h16c2.211 0 4-1.789 4-4s-1.789-4-4-4H24zm0-8h4c2.211 0 4-1.789 4-4s-1.789-4-4-4h-4c-2.211 0-4 1.789-4 4s1.789 4 4 4z"></path>
      <path d="M58.824 17.168L42.832 1.176A3.977 3.977 0 0040 0H8C5.789 0 4 1.789 4 4v56c0 2.211 1.789 4 4 4h48c2.211 0 4-1.789 4-4V20a3.977 3.977 0 00-1.176-2.832zM44 13.656L46.344 16H44v-2.344zM52 56H12V8h24v12c0 2.211 1.789 4 4 4h12v32z"></path>
  </symbol>
</svg>